HIERARCHY
ROOT pelvis
{
  OFFSET 0 100 0
  CHANNELS 6 Xposition Yposition Zposition Zrotation Xrotation Yrotation
  JOINT pelvis_right_femur
  {
    OFFSET -10.78128 -3.44521 -0.5502486
    CHANNELS 3 Zrotation Xrotation Yrotation
    JOINT right_femur_tibia
    {
      OFFSET -0.8047443 -44.0398 -0.1307829
      CHANNELS 3 Zrotation Xrotation Yrotation
      JOINT right_tibia_foot
      {
        OFFSET 3.006224 -47.83518 -5
        CHANNELS 3 Zrotation Xrotation Yrotation
        End Site
        {
          OFFSET 0 -5 15
        }
      }
    }
  }
  JOINT pelvis_left_femur
  {
    OFFSET 10.78128 -3.44521 -0.5502486
    CHANNELS 3 Zrotation Xrotation Yrotation
    JOINT left_femur_tibia
    {
      OFFSET 0.8047443 -44.0398 -0.1307829
      CHANNELS 3 Zrotation Xrotation Yrotation
      JOINT left_tibia_foot
      {
        OFFSET -4.370144 -48.10324 -4.275266
        CHANNELS 3 Zrotation Xrotation Yrotation
        End Site
        {
          OFFSET 0 -5 15
        }
      }
    }
  }
  JOINT pelvis_spine1
  {
    OFFSET 0 6.468898 -3.129235
    CHANNELS 3 Zrotation Xrotation Yrotation
    JOINT spine1
    {
      OFFSET 0 23.15396 4.99043
      CHANNELS 3 Zrotation Xrotation Yrotation
      JOINT spine2
      {
        OFFSET 0 20.79997 -5.064912
        CHANNELS 3 Zrotation Xrotation Yrotation
        JOINT neck
        {
          OFFSET 0 14.38658 9.616178
          CHANNELS 3 Zrotation Xrotation Yrotation
          End Site
          {
            OFFSET 0 20 0
          }
        }
      }
      JOINT right_manubrium
      {
        OFFSET -5.722621 16.35077 3.967754
        CHANNELS 3 Zrotation Xrotation Yrotation
        JOINT right_clavicle
        {
          OFFSET -13.16364 1.694482 -4.693211
          CHANNELS 3 Zrotation Xrotation Yrotation
          JOINT right_humerus
          {
            OFFSET -28.5034 -0.3100689 -2.792744
            CHANNELS 3 Zrotation Xrotation Yrotation
            JOINT right_radius
            {
              OFFSET -25.15693 0.02248979 -1.271978
              CHANNELS 3 Zrotation Xrotation Yrotation
              End Site
              {
                OFFSET -15 0 0
              }
            }
          }
        }
      }
      JOINT left_manubrium
      {
        OFFSET 5.722621 16.35077 3.967754
        CHANNELS 3 Zrotation Xrotation Yrotation
        JOINT left_clavicle
        {
          OFFSET 13.16364 1.694482 -4.693211
          CHANNELS 3 Zrotation Xrotation Yrotation
          JOINT left_humerus
          {
            OFFSET 29.39168 -1.063119 -2.237045
            CHANNELS 3 Zrotation Xrotation Yrotation
            JOINT left_radius
            {
              OFFSET 24.59957 -0.9528479 0.9047498
              CHANNELS 3 Zrotation Xrotation Yrotation
              End Site
              {
                OFFSET 15 -0 -0
              }
            }
          }
        }
      }
    }
  }
}
MOTION
Frames: 9
Frame Time: 0.0416666666667
1417.532 100.3524 2800.91 6.903801 -3.561671 47.5283 -0.09762606 3.123687 4.727406 -0 55.95584 -0 2.169262 2.989401 -5.449943 -5.714652 -7.079719 -8.096438 -0 21.36599 -0 -3.410773 -12.6313 17.94031 -3.313567 -0.571678 6.349817 -1.252708 10.79583 -4.960907 1.55594 21.84053 6.445797 2.744697 -17.84562 7.526622 2.730046 -19.25498 10.7257 85.90785 26.91562 -12.39856 -0 0 18.78066 -24.72457 12.85291 12.8969 3.996449 -16.93101 -3.675156 -90.42593 24.33396 21.95461 0 0 -11.90356 -1.219924 5.912691 16.06145
1422.509 101.4986 2804.206 6.142636 -3.092976 48.73539 0.08514252 -3.200063 4.155745 -0 55.92282 -0 3.259281 3.953581 -6.280316 -5.787451 -3.443686 -8.382628 -0 19.36372 -0 -2.949594 -14.13068 17.2849 -3.370878 -0.3048928 5.623297 -0.9469379 10.9318 -5.904242 1.28489 21.58843 7.392063 2.964216 -17.78707 8.226003 4.047401 -18.2539 11.0565 85.97188 30.74397 -13.82988 -0 0 17.34924 -26.68223 16.16955 13.59581 4.278903 -17.89563 -3.913896 -88.70715 23.80321 19.49937 0 0 -14.08116 -0.6280537 7.197881 15.07539
1427.294 102.1472 2807.297 5.482865 -2.798018 49.99443 0.1784426 -9.724518 3.403374 -0 52.08946 -0 4.509584 2.517357 -7.230289 -5.61559 0.6769623 -8.842118 -0 16.66671 -0 -3.040823 -15.66101 16.36708 -3.21909 0.1149081 4.712905 -0.61987 10.59042 -6.6198 1.211042 21.46609 8.164209 2.886957 -17.3049 9.144087 4.845402 -16.9467 11.06692 86.12103 33.67121 -15.01171 -0 0 16.16928 -28.60369 19.53834 14.55664 4.804297 -18.43945 -4.045337 -86.71199 23.13633 16.06359 0 0 -16.42184 -0.1368526 8.429276 13.93789
1431.995 102.0372 2810.396 5.493933 -2.882491 51.23547 -0.03430977 -15.36746 2.670438 -0 45.25027 -0 5.100167 -1.249805 -8.22144 -5.339903 5.52153 -9.354186 -0 14.21258 -0 -3.8993 -16.91621 15.15221 -2.888051 0.5446194 3.70657 -0.4042934 9.742305 -6.871442 1.472233 21.66757 8.26491 2.388284 -16.24698 9.909047 4.455936 -15.43492 10.54957 86.83304 33.53941 -16.11891 -0 0 15.17538 -28.93433 21.08441 14.75202 5.445717 -18.57502 -4.193071 -84.4267 22.70777 11.50054 0 0 -18.8779 0.2504375 8.879229 12.85981
1436.748 101.1734 2813.776 6.274947 -3.296084 52.36787 -0.4414482 -19.5757 2.165501 -0 36.75058 -0 4.219978 -5.887737 -9.232142 -5.062909 10.93941 -9.659453 -0 13.42408 -0 -5.297003 -17.7935 13.94907 -2.528132 0.8286248 2.752757 -0.2973057 8.617335 -6.762126 2.061339 22.25907 7.49499 1.632217 -14.96484 10.18776 2.814568 -13.88481 9.599951 88.44077 30.00139 -17.52174 -0 0 13.74703 -26.71369 19.73839 13.26562 6.020235 -18.78333 -4.418321 -81.91424 22.90686 6.036754 0 0 -21.58447 0.7595583 8.532588 11.7999
1441.627 99.85729 2817.606 7.069131 -3.687019 53.25945 -0.567006 -22.65483 1.934925 -0 27.68956 -0 2.005057 -9.201216 -10.12634 -4.800984 16.09123 -9.709468 -0 15.08554 -0 -6.589966 -18.53095 13.27432 -2.305461 0.9215078 1.978103 -0.1085836 7.592757 -6.684544 2.765965 22.99943 6.335551 1.035074 -14.31397 10.06873 0.8284542 -12.5057 8.63397 90.51703 25.71507 -19.23231 -0 0 11.30469 -23.08907 16.70064 10.70593 6.455659 -19.50173 -4.530893 -79.61631 23.754 0.7511787 0 0 -24.4493 1.609069 8.379162 10.56192
1446.608 98.49728 2821.845 6.998816 -3.749472 53.81611 0.0346862 -25.02147 2.016733 -0 19.69649 -0 -0.3903858 -9.945002 -10.51258 -4.535281 19.79052 -9.658024 -0 18.52441 -0 -7.330907 -19.19051 13.22636 -2.190688 0.863688 1.498425 0.2961568 6.994511 -6.903331 3.250004 23.46087 5.50591 0.898079 -14.85739 9.813353 -0.4047958 -11.63896 8.074762 92.17079 23.50906 -20.96155 -0 0 8.403581 -19.78053 14.07528 8.296066 6.774902 -20.58143 -4.356186 -78.30712 24.94451 -2.564542 0 0 -26.85411 2.619922 8.960473 9.374579
1451.648 97.37675 2826.333 6.056113 -3.531393 54.10709 1.303487 -26.50322 2.448287 -0 14.61894 -0 -1.892049 -8.717058 -10.26194 -4.266426 21.47445 -9.577303 -0 22.48969 -0 -7.626748 -19.29502 13.37933 -2.006385 0.6991857 1.344102 0.8269826 6.917275 -7.338314 3.322251 23.44061 5.261317 1.146776 -16.20319 9.525698 -0.5489173 -11.46939 8.047193 92.98006 23.67766 -22.39669 -0 0 6.232527 -17.56411 12.77188 6.727967 6.945039 -21.48209 -4.01989 -78.3612 25.96728 -2.982782 0 0 -28.08349 3.374965 9.694508 8.714919
1456.77 96.60831 2830.955 4.995454 -3.324805 54.26915 2.698775 -26.60773 3.057771 -0 12.72968 -0 -2.301361 -6.997757 -9.75566 -4.018241 21.61383 -9.373258 -0 26.66806 -0 -7.815347 -18.32995 13.35726 -1.689429 0.4524619 1.406474 1.310191 7.220483 -7.75723 3.089929 23.12956 5.347839 1.472687 -17.46768 9.20035 -0.02937202 -11.73898 8.383851 93.17604 24.74865 -23.35947 -0 0 5.173977 -16.51556 12.48552 6.092039 6.883951 -21.88788 -3.771829 -79.29534 26.26291 -1.458197 0 0 -28.02972 3.739564 9.913276 8.565614
